<?xml version="1.0" encoding="UTF-8"?>
<!DOCTYPE svg PUBLIC "-//W3C//DTD SVG 1.1//EN" "http://www.w3.org/Graphics/SVG/1.1/DTD/svg11.dtd">
<svg xmlns="http://www.w3.org/2000/svg" version="1.1" width="180px" height="190px" style="shape-rendering:geometricPrecision; text-rendering:geometricPrecision; image-rendering:optimizeQuality; fill-rule:evenodd; clip-rule:evenodd" xmlns:xlink="http://www.w3.org/1999/xlink">
<g><path style="opacity:1" fill="#0051d4" d="M 82.5,-0.5 C 85.8333,-0.5 89.1667,-0.5 92.5,-0.5C 89.7469,5.04825 87.2469,10.7149 85,16.5C 84.0197,17.9814 82.853,19.3147 81.5,20.5C 82.4279,21.7678 82.5946,23.1011 82,24.5C 81.6667,24.1667 81.3333,23.8333 81,23.5C 80.5814,24.6721 79.9147,25.6721 79,26.5C 78.3828,27.4491 78.5494,28.2825 79.5,29C 77.3215,29.4419 76.6548,30.4419 77.5,32C 76.1853,34.8479 74.5187,37.5145 72.5,40C 74.9288,40.4512 75.0955,41.2845 73,42.5C 71.3335,41.6598 71.1669,42.1598 72.5,44C 71.9056,44.4643 71.2389,44.631 70.5,44.5C 65.4379,40.0392 62.7712,34.3725 62.5,27.5C 63.8746,30.5701 65.8746,31.0701 68.5,29C 66.9052,29.6171 65.5719,29.2837 64.5,28C 65.448,27.5172 66.448,27.3505 67.5,27.5C 67.7135,25.8561 67.3802,24.3561 66.5,23C 69.3463,22.1207 70.013,20.4541 68.5,18C 69.4491,17.3828 70.2825,17.5494 71,18.5C 71.6172,17.5509 71.4506,16.7175 70.5,16C 72.6512,12.5671 74.9845,9.23374 77.5,6C 76.5419,4.85252 76.8753,3.85252 78.5,3C 77.9056,2.53566 77.2389,2.36899 76.5,2.5C 78.5,1.5 80.5,0.5 82.5,-0.5 Z"/></g>
<g><path style="opacity:1" fill="#0051ce" d="M 92.5,-0.5 C 94.1667,-0.5 95.8333,-0.5 97.5,-0.5C 100.47,0.65323 103.137,2.3199 105.5,4.5C 102.962,6.00106 100.962,8.16772 99.5,11C 100.833,12.8402 100.666,13.3402 99,12.5C 97.6319,13.9931 97.4652,15.4931 98.5,17C 96.1671,18.2426 95.5004,19.9093 96.5,22C 93.3151,25.3911 91.3151,29.0577 90.5,33C 87.0213,38.6143 84.0213,44.4476 81.5,50.5C 77.0666,49.7855 73.4,47.7855 70.5,44.5C 71.2389,44.631 71.9056,44.4643 72.5,44C 71.1669,42.1598 71.3335,41.6598 73,42.5C 75.0955,41.2845 74.9288,40.4512 72.5,40C 74.5187,37.5145 76.1853,34.8479 77.5,32C 76.6548,30.4419 77.3215,29.4419 79.5,29C 78.5494,28.2825 78.3828,27.4491 79,26.5C 79.9147,25.6721 80.5814,24.6721 81,23.5C 81.3333,23.8333 81.6667,24.1667 82,24.5C 82.5946,23.1011 82.4279,21.7678 81.5,20.5C 82.853,19.3147 84.0197,17.9814 85,16.5C 87.2469,10.7149 89.7469,5.04825 92.5,-0.5 Z"/></g>
<g><path style="opacity:1" fill="#0056d9" d="M 76.5,2.5 C 77.2389,2.36899 77.9056,2.53566 78.5,3C 76.8753,3.85252 76.5419,4.85252 77.5,6C 74.9845,9.23374 72.6512,12.5671 70.5,16C 71.4506,16.7175 71.6172,17.5509 71,18.5C 70.2825,17.5494 69.4491,17.3828 68.5,18C 70.013,20.4541 69.3463,22.1207 66.5,23C 67.3802,24.3561 67.7135,25.8561 67.5,27.5C 66.448,27.3505 65.448,27.5172 64.5,28C 65.5719,29.2837 66.9052,29.6171 68.5,29C 65.8746,31.0701 63.8746,30.5701 62.5,27.5C 61.7443,16.0014 66.411,7.66805 76.5,2.5 Z"/></g>
<g><path style="opacity:1" fill="#0050c8" d="M 105.5,4.5 C 108.089,5.41938 110.089,7.08605 111.5,9.5C 109.401,10.7518 107.401,12.2518 105.5,14C 107.211,15.1332 107.711,16.6332 107,18.5C 106.586,18.0426 106.086,17.7093 105.5,17.5C 104.859,19.2955 103.859,20.7955 102.5,22C 103.672,22.4186 104.672,23.0853 105.5,24C 104.491,26.1718 102.824,27.3385 100.5,27.5C 100.286,29.1439 100.62,30.6439 101.5,32C 99.5155,33.8029 97.5155,34.8029 95.5,35C 96.0509,36.3985 96.3842,37.7318 96.5,39C 94.1088,39.6914 94.1088,40.6914 96.5,42C 93.734,42.6912 93.0673,44.1912 94.5,46.5C 94.1543,47.6956 93.6543,47.6956 93,46.5C 91.5619,47.9003 90.7286,49.567 90.5,51.5C 89.5,51.5 88.5,51.5 87.5,51.5C 85.2646,51.7947 83.2646,51.4614 81.5,50.5C 84.0213,44.4476 87.0213,38.6143 90.5,33C 91.3151,29.0577 93.3151,25.3911 96.5,22C 95.5004,19.9093 96.1671,18.2426 98.5,17C 97.4652,15.4931 97.6319,13.9931 99,12.5C 100.666,13.3402 100.833,12.8402 99.5,11C 100.962,8.16772 102.962,6.00106 105.5,4.5 Z"/></g>
<g><path style="opacity:1" fill="#004bc8" d="M 111.5,9.5 C 113.192,11.2048 114.525,13.2048 115.5,15.5C 113.495,16.254 112.828,17.4207 113.5,19C 111.384,20.1707 110.718,21.6707 111.5,23.5C 109.762,26.2322 107.762,28.7322 105.5,31C 106.022,31.5613 106.355,32.228 106.5,33C 105.491,34.1681 104.491,35.3348 103.5,36.5C 104.571,38.3255 103.904,39.4921 101.5,40C 102.28,41.073 102.113,42.2396 101,43.5C 100.346,42.3044 99.8457,42.3044 99.5,43.5C 100.911,45.0175 100.744,46.3508 99,47.5C 98.6667,46.8333 98.3333,46.1667 98,45.5C 97.3872,47.4952 97.8872,49.1619 99.5,50.5C 96.3657,51.2271 93.1991,51.8937 90,52.5C 88.9302,52.472 88.0968,52.1386 87.5,51.5C 88.5,51.5 89.5,51.5 90.5,51.5C 90.7286,49.567 91.5619,47.9003 93,46.5C 93.6543,47.6956 94.1543,47.6956 94.5,46.5C 93.0673,44.1912 93.734,42.6912 96.5,42C 94.1088,40.6914 94.1088,39.6914 96.5,39C 96.3842,37.7318 96.0509,36.3985 95.5,35C 97.5155,34.8029 99.5155,33.8029 101.5,32C 100.62,30.6439 100.286,29.1439 100.5,27.5C 102.824,27.3385 104.491,26.1718 105.5,24C 104.672,23.0853 103.672,22.4186 102.5,22C 103.859,20.7955 104.859,19.2955 105.5,17.5C 106.086,17.7093 106.586,18.0426 107,18.5C 107.711,16.6332 107.211,15.1332 105.5,14C 107.401,12.2518 109.401,10.7518 111.5,9.5 Z"/></g>
<g><path style="opacity:1" fill="#004bc1" d="M 115.5,15.5 C 116.654,22.2568 117.987,28.9235 119.5,35.5C 118.069,36.4458 116.736,37.6125 115.5,39C 115.833,39.3333 116.167,39.6667 116.5,40C 115.766,42.5607 114.433,44.7274 112.5,46.5C 107.719,46.391 103.386,47.7244 99.5,50.5C 97.8872,49.1619 97.3872,47.4952 98,45.5C 98.3333,46.1667 98.6667,46.8333 99,47.5C 100.744,46.3508 100.911,45.0175 99.5,43.5C 99.8457,42.3044 100.346,42.3044 101,43.5C 102.113,42.2396 102.28,41.073 101.5,40C 103.904,39.4921 104.571,38.3255 103.5,36.5C 104.491,35.3348 105.491,34.1681 106.5,33C 106.355,32.228 106.022,31.5613 105.5,31C 107.762,28.7322 109.762,26.2322 111.5,23.5C 110.718,21.6707 111.384,20.1707 113.5,19C 112.828,17.4207 113.495,16.254 115.5,15.5 Z"/></g>
<g><path style="opacity:1" fill="#055ce7" d="M 28.5,35.5 C 27.3915,36.29 26.0581,36.79 24.5,37C 25.624,37.2492 26.624,37.7492 27.5,38.5C 25.771,39.5968 24.1044,40.7635 22.5,42C 24.7015,42.7768 24.7015,43.9435 22.5,45.5C 20.4706,44.3707 20.1373,44.8707 21.5,47C 20.8333,47.6667 20.1667,48.3333 19.5,49C 19.6651,50.1169 19.9984,51.2836 20.5,52.5C 19.7261,53.7112 18.8928,53.7112 18,52.5C 18,54.5 18,56.5 18,58.5C 17.586,58.0426 17.086,57.7093 16.5,57.5C 15.4164,58.6651 14.5831,59.9984 14,61.5C 13.6667,61.1667 13.3333,60.8333 13,60.5C 12.4926,61.9961 12.9926,63.1627 14.5,64C 11.763,65.6115 10.9297,67.7782 12,70.5C 10.527,70.1321 9.02702,70.6321 7.5,72C 10.2636,73.544 10.0969,74.7107 7,75.5C 6.50999,76.7932 6.34332,78.1266 6.5,79.5C 3.83612,77.5156 2.16945,74.8489 1.5,71.5C 2.20261,69.2843 3.53594,67.451 5.5,66C 4.16686,64.1598 4.33353,63.6598 6,64.5C 7.74971,61.7536 8.74971,58.7536 9,55.5C 11.7344,54.6383 11.9011,53.805 9.5,53C 10.5,52.6667 11.5,52.3333 12.5,52C 11.359,49.2978 12.359,47.6311 15.5,47C 14.8333,46.6667 14.1667,46.3333 13.5,46C 15.5692,42.7346 17.5692,39.5679 19.5,36.5C 22.2869,35.5233 25.2869,35.19 28.5,35.5 Z"/></g>
<g><path style="opacity:1" fill="#004aba" d="M 119.5,35.5 C 122.247,38.5375 125.58,40.5375 129.5,41.5C 127.394,43.2716 125.727,45.4383 124.5,48C 125.167,48.3333 125.833,48.6667 126.5,49C 125.364,50.1451 124.364,51.3117 123.5,52.5C 121.704,51.2073 120.037,49.7073 118.5,48C 116.655,46.872 114.655,46.372 112.5,46.5C 114.433,44.7274 115.766,42.5607 116.5,40C 116.167,39.6667 115.833,39.3333 115.5,39C 116.736,37.6125 118.069,36.4458 119.5,35.5 Z"/></g>
<g><path style="opacity:1" fill="#0044af" d="M 162.5,37.5 C 160.019,37.3234 158.186,38.3234 157,40.5C 156.508,41.549 156.674,42.549 157.5,43.5C 153.391,52.4081 148.891,60.7414 144,68.5C 142.064,74.1295 139.897,79.1295 137.5,83.5C 132.348,81.937 127.348,82.2703 122.5,84.5C 121.593,81.7897 122.593,79.623 125.5,78C 124.416,75.8103 125.083,74.1437 127.5,73C 126.366,71.984 126.699,71.3173 128.5,71C 127.588,68.5118 128.588,66.8452 131.5,66C 131.167,65.6667 130.833,65.3333 130.5,65C 133.229,58.8745 136.229,52.8745 139.5,47C 139.167,46.6667 138.833,46.3333 138.5,46C 140.12,43.6272 141.787,41.2939 143.5,39C 143.43,38.2352 143.097,37.7352 142.5,37.5C 145.526,35.9814 148.859,35.3148 152.5,35.5C 156.141,35.3148 159.474,35.9814 162.5,37.5 Z"/></g>
<g><path style="opacity:1" fill="#055ced" d="M 19.5,36.5 C 17.5692,39.5679 15.5692,42.7346 13.5,46C 14.1667,46.3333 14.8333,46.6667 15.5,47C 12.359,47.6311 11.359,49.2978 12.5,52C 11.5,52.3333 10.5,52.6667 9.5,53C 11.9011,53.805 11.7344,54.6383 9,55.5C 8.74971,58.7536 7.74971,61.7536 6,64.5C 4.33353,63.6598 4.16686,64.1598 5.5,66C 3.53594,67.451 2.20261,69.2843 1.5,71.5C 0.833333,70.5 0.166667,69.5 -0.5,68.5C -0.5,63.8333 -0.5,59.1667 -0.5,54.5C 2.81722,44.8321 9.48388,38.8321 19.5,36.5 Z"/></g>
<g><path style="opacity:1" fill="#0044b4" d="M 142.5,37.5 C 143.097,37.7352 143.43,38.2352 143.5,39C 141.787,41.2939 140.12,43.6272 138.5,46C 138.833,46.3333 139.167,46.6667 139.5,47C 136.229,52.8745 133.229,58.8745 130.5,65C 130.833,65.3333 131.167,65.6667 131.5,66C 128.588,66.8452 127.588,68.5118 128.5,71C 126.699,71.3173 126.366,71.984 127.5,73C 125.083,74.1437 124.416,75.8103 125.5,78C 122.593,79.623 121.593,81.7897 122.5,84.5C 118.117,88.1198 116.451,92.7865 117.5,98.5C 116.577,97.6971 115.577,97.5304 114.5,98C 114.833,98.3333 115.167,98.6667 115.5,99C 113.893,100.049 113.227,101.549 113.5,103.5C 111.058,103.119 110.391,103.786 111.5,105.5C 110.289,107.422 108.956,109.255 107.5,111C 107.833,111.333 108.167,111.667 108.5,112C 107.167,113.667 105.833,115.333 104.5,117C 104.728,117.399 105.062,117.565 105.5,117.5C 104.341,119.25 102.674,120.25 100.5,120.5C 99.3121,119.316 98.1455,119.316 97,120.5C 96.3333,119.5 96.3333,118.5 97,117.5C 98.9427,117.959 100.276,116.959 101,114.5C 101.333,114.833 101.667,115.167 102,115.5C 102.353,114.328 102.187,113.162 101.5,112C 103.598,109.12 105.931,106.453 108.5,104C 107.185,102.605 107.519,101.605 109.5,101C 108.524,98.8531 108.691,96.6864 110,94.5C 110.333,94.8333 110.667,95.1667 111,95.5C 111.199,93.5975 112.033,92.0975 113.5,91C 111.068,89.9125 111.402,89.4125 114.5,89.5C 114.67,88.1779 114.337,87.0113 113.5,86C 114.833,85.6667 116.167,85.3333 117.5,85C 115.972,82.1192 116.638,79.7859 119.5,78C 118.366,76.984 118.699,76.3173 120.5,76C 119.366,74.984 119.699,74.3173 121.5,74C 120.944,73.6174 120.611,73.1174 120.5,72.5C 122.588,70.6644 123.921,68.3311 124.5,65.5C 127.62,64.3053 127.953,62.8053 125.5,61C 126.722,58.0346 128.222,57.8679 130,60.5C 130.251,58.567 130.751,56.7337 131.5,55C 131.507,53.4173 131.174,51.7506 130.5,50C 131.672,49.5814 132.672,48.9147 133.5,48C 132.253,46.5064 132.253,45.0064 133.5,43.5C 134.812,44.4604 136.146,44.2937 137.5,43C 135.618,42.8019 133.952,42.3019 132.5,41.5C 135.551,39.6477 138.884,38.3143 142.5,37.5 Z"/></g>
<g><path style="opacity:1" fill="#0043a7" d="M 162.5,37.5 C 165.849,38.1695 168.516,39.8361 170.5,42.5C 169.347,43.3132 169.347,44.3132 170.5,45.5C 168.611,46.604 166.945,47.9373 165.5,49.5C 166.247,49.7365 167.08,50.0698 168,50.5C 168.689,53.3294 167.522,54.9961 164.5,55.5C 165.428,56.7678 165.595,58.1011 165,59.5C 164.043,57.2908 162.876,57.4575 161.5,60C 161.833,60.3333 162.167,60.6667 162.5,61C 160.963,62.1096 160.297,63.6096 160.5,65.5C 159.127,65.3433 157.793,65.51 156.5,66C 156.324,67.6597 156.991,69.3264 158.5,71C 157.663,72.0113 157.33,73.1779 157.5,74.5C 156.448,74.3505 155.448,74.5172 154.5,75C 155.634,76.016 155.301,76.6827 153.5,77C 154.833,78.8402 154.666,79.3402 153,78.5C 152.581,79.6721 151.915,80.6721 151,81.5C 152.114,83.6691 151.614,85.5024 149.5,87C 150.056,87.3826 150.389,87.8826 150.5,88.5C 145.53,88.1818 141.196,86.5151 137.5,83.5C 139.897,79.1295 142.064,74.1295 144,68.5C 148.891,60.7414 153.391,52.4081 157.5,43.5C 156.674,42.549 156.508,41.549 157,40.5C 158.186,38.3234 160.019,37.3234 162.5,37.5 Z"/></g>
<g><path style="opacity:1" fill="#0257e0" d="M 31.5,35.5 C 36.4166,36.3554 40.7499,38.3554 44.5,41.5C 45.7846,43.8061 45.1179,45.6394 42.5,47C 42.8333,47.3333 43.1667,47.6667 43.5,48C 41.1671,49.2426 40.5004,50.9093 41.5,53C 40.646,54.0217 39.646,54.8551 38.5,55.5C 36.8593,60.9172 34.3593,65.9172 31,70.5C 29.8903,72.3969 29.7236,74.2302 30.5,76C 28.6061,77.1011 27.9394,78.4345 28.5,80C 26.2646,82.6824 24.5979,85.1824 23.5,87.5C 17.6551,87.4043 12.6551,85.4043 8.5,81.5C 9.55198,81.6495 10.552,81.4828 11.5,81C 11.0411,79.0573 12.0411,77.724 14.5,77C 12.1088,76.3086 12.1088,75.3086 14.5,74C 14.1667,73.6667 13.8333,73.3333 13.5,73C 15.8833,72.935 16.55,72.1017 15.5,70.5C 18.68,65.4486 21.68,60.2819 24.5,55C 23.5494,54.2825 23.3828,53.4491 24,52.5C 25.1667,51.3333 26.3333,50.1667 27.5,49C 27.1667,48.6667 26.8333,48.3333 26.5,48C 27.5248,45.9285 28.3581,43.7619 29,41.5C 30.6718,40.4982 31.8384,39.3316 32.5,38C 31.7476,37.3292 31.4142,36.4959 31.5,35.5 Z"/></g>
<g><path style="opacity:1" fill="#0457e6" d="M 28.5,35.5 C 29.5,35.5 30.5,35.5 31.5,35.5C 31.4142,36.4959 31.7476,37.3292 32.5,38C 31.8384,39.3316 30.6718,40.4982 29,41.5C 28.3581,43.7619 27.5248,45.9285 26.5,48C 26.8333,48.3333 27.1667,48.6667 27.5,49C 26.3333,50.1667 25.1667,51.3333 24,52.5C 23.3828,53.4491 23.5494,54.2825 24.5,55C 21.68,60.2819 18.68,65.4486 15.5,70.5C 16.55,72.1017 15.8833,72.935 13.5,73C 13.8333,73.3333 14.1667,73.6667 14.5,74C 12.1088,75.3086 12.1088,76.3086 14.5,77C 12.0411,77.724 11.0411,79.0573 11.5,81C 10.552,81.4828 9.55198,81.6495 8.5,81.5C 7.5,81.1667 6.83333,80.5 6.5,79.5C 6.34332,78.1266 6.50999,76.7932 7,75.5C 10.0969,74.7107 10.2636,73.544 7.5,72C 9.02702,70.6321 10.527,70.1321 12,70.5C 10.9297,67.7782 11.763,65.6115 14.5,64C 12.9926,63.1627 12.4926,61.9961 13,60.5C 13.3333,60.8333 13.6667,61.1667 14,61.5C 14.5831,59.9984 15.4164,58.6651 16.5,57.5C 17.086,57.7093 17.586,58.0426 18,58.5C 18,56.5 18,54.5 18,52.5C 18.8928,53.7112 19.7261,53.7112 20.5,52.5C 19.9984,51.2836 19.6651,50.1169 19.5,49C 20.1667,48.3333 20.8333,47.6667 21.5,47C 20.1373,44.8707 20.4706,44.3707 22.5,45.5C 24.7015,43.9435 24.7015,42.7768 22.5,42C 24.1044,40.7635 25.771,39.5968 27.5,38.5C 26.624,37.7492 25.624,37.2492 24.5,37C 26.0581,36.79 27.3915,36.29 28.5,35.5 Z"/></g>
<g><path style="opacity:1" fill="#004ab4" d="M 129.5,41.5 C 130.5,41.5 131.5,41.5 132.5,41.5C 133.952,42.3019 135.618,42.8019 137.5,43C 136.146,44.2937 134.812,44.4604 133.5,43.5C 132.253,45.0064 132.253,46.5064 133.5,48C 132.672,48.9147 131.672,49.5814 130.5,50C 131.174,51.7506 131.507,53.4173 131.5,55C 130.751,56.7337 130.251,58.567 130,60.5C 128.222,57.8679 126.722,58.0346 125.5,61C 127.953,62.8053 127.62,64.3053 124.5,65.5C 124.706,61.1018 124.373,56.7685 123.5,52.5C 124.364,51.3117 125.364,50.1451 126.5,49C 125.833,48.6667 125.167,48.3333 124.5,48C 125.727,45.4383 127.394,43.2716 129.5,41.5 Z"/></g>
<g><path style="opacity:1" fill="#003ea2" d="M 170.5,42.5 C 175.066,45.0942 177.733,49.0942 178.5,54.5C 176.451,54.7058 176.117,55.5391 177.5,57C 176.061,59.2246 174.394,61.2246 172.5,63C 172.5,65 172.5,67 172.5,69C 170.971,70.7909 169.304,72.4576 167.5,74C 168.167,74.3333 168.833,74.6667 169.5,75C 167.833,77.3333 166.167,79.6667 164.5,82C 164.833,82.3333 165.167,82.6667 165.5,83C 163.061,83.5334 162.395,84.7 163.5,86.5C 159.295,87.9103 154.962,88.577 150.5,88.5C 150.389,87.8826 150.056,87.3826 149.5,87C 151.614,85.5024 152.114,83.6691 151,81.5C 151.915,80.6721 152.581,79.6721 153,78.5C 154.666,79.3402 154.833,78.8402 153.5,77C 155.301,76.6827 155.634,76.016 154.5,75C 155.448,74.5172 156.448,74.3505 157.5,74.5C 157.33,73.1779 157.663,72.0113 158.5,71C 156.991,69.3264 156.324,67.6597 156.5,66C 157.793,65.51 159.127,65.3433 160.5,65.5C 160.297,63.6096 160.963,62.1096 162.5,61C 162.167,60.6667 161.833,60.3333 161.5,60C 162.876,57.4575 164.043,57.2908 165,59.5C 165.595,58.1011 165.428,56.7678 164.5,55.5C 167.522,54.9961 168.689,53.3294 168,50.5C 167.08,50.0698 166.247,49.7365 165.5,49.5C 166.945,47.9373 168.611,46.604 170.5,45.5C 169.347,44.3132 169.347,43.3132 170.5,42.5 Z"/></g>
<g><path style="opacity:1" fill="#0056d9" d="M 44.5,41.5 C 49.5627,45.6208 52.5627,50.9541 53.5,57.5C 51.3814,58.7912 49.7147,60.6246 48.5,63C 48.8333,63.3333 49.1667,63.6667 49.5,64C 47.6499,66.0176 45.6499,67.8509 43.5,69.5C 43.8457,70.6956 44.3457,70.6956 45,69.5C 46.0121,73.1654 45.1787,76.3321 42.5,79C 42.8333,79.3333 43.1667,79.6667 43.5,80C 41.6675,80.7485 40.0009,81.7485 38.5,83C 39.448,83.4828 40.448,83.6495 41.5,83.5C 36.0083,87.53 30.0083,88.8634 23.5,87.5C 24.5979,85.1824 26.2646,82.6824 28.5,80C 27.9394,78.4345 28.6061,77.1011 30.5,76C 29.7236,74.2302 29.8903,72.3969 31,70.5C 34.3593,65.9172 36.8593,60.9172 38.5,55.5C 39.646,54.8551 40.646,54.0217 41.5,53C 40.5004,50.9093 41.1671,49.2426 43.5,48C 43.1667,47.6667 42.8333,47.3333 42.5,47C 45.1179,45.6394 45.7846,43.8061 44.5,41.5 Z"/></g>
<g><path style="opacity:1" fill="#003e9c" d="M 178.5,54.5 C 178.833,54.5 179.167,54.5 179.5,54.5C 179.5,59.1667 179.5,63.8333 179.5,68.5C 176.678,76.6594 171.345,82.6594 163.5,86.5C 162.395,84.7 163.061,83.5334 165.5,83C 165.167,82.6667 164.833,82.3333 164.5,82C 166.167,79.6667 167.833,77.3333 169.5,75C 168.833,74.6667 168.167,74.3333 167.5,74C 169.304,72.4576 170.971,70.7909 172.5,69C 172.5,67 172.5,65 172.5,63C 174.394,61.2246 176.061,59.2246 177.5,57C 176.117,55.5391 176.451,54.7058 178.5,54.5 Z"/></g>
<g><path style="opacity:1" fill="#0051d4" d="M 53.5,57.5 C 55.4425,68.9465 51.4425,77.6132 41.5,83.5C 40.448,83.6495 39.448,83.4828 38.5,83C 40.0009,81.7485 41.6675,80.7485 43.5,80C 43.1667,79.6667 42.8333,79.3333 42.5,79C 45.1787,76.3321 46.0121,73.1654 45,69.5C 44.3457,70.6956 43.8457,70.6956 43.5,69.5C 45.6499,67.8509 47.6499,66.0176 49.5,64C 49.1667,63.6667 48.8333,63.3333 48.5,63C 49.7147,60.6246 51.3814,58.7912 53.5,57.5 Z"/></g>
<g><path style="opacity:1" fill="#004bc0" d="M 86.5,69.5 C 91.5677,69.2449 96.2344,70.2449 100.5,72.5C 97.2558,77.7609 94.5891,82.9276 92.5,88C 94.4276,90.7329 93.7609,91.8995 90.5,91.5C 88.4341,95.2785 86.9341,99.2785 86,103.5C 82.8336,108.898 79.6669,114.231 76.5,119.5C 72.2329,118.232 69.2329,115.565 67.5,111.5C 68.7383,111.19 68.7383,110.69 67.5,110C 69.8856,109.716 70.5523,108.716 69.5,107C 70.5,106 71.5,105 72.5,104C 72.1667,103.667 71.8333,103.333 71.5,103C 73.7185,99.6583 75.7185,96.1583 77.5,92.5C 77.2907,91.914 76.9574,91.414 76.5,91C 79.6523,87.849 81.9857,84.1824 83.5,80C 83.1667,79.6667 82.8333,79.3333 82.5,79C 84.6785,78.5581 85.3452,77.5581 84.5,76C 86.8562,74.1733 87.5229,72.0066 86.5,69.5 Z"/></g>
<g><path style="opacity:1" fill="#004bc7" d="M 86.5,69.5 C 87.5229,72.0066 86.8562,74.1733 84.5,76C 85.3452,77.5581 84.6785,78.5581 82.5,79C 82.8333,79.3333 83.1667,79.6667 83.5,80C 81.9857,84.1824 79.6523,87.849 76.5,91C 76.9574,91.414 77.2907,91.914 77.5,92.5C 75.7185,96.1583 73.7185,99.6583 71.5,103C 71.8333,103.333 72.1667,103.667 72.5,104C 71.5,105 70.5,106 69.5,107C 70.5523,108.716 69.8856,109.716 67.5,110C 68.7383,110.69 68.7383,111.19 67.5,111.5C 65.684,109.882 64.3507,107.882 63.5,105.5C 67.1811,105.282 67.8478,104.116 65.5,102C 67.669,100.672 68.0023,99.0057 66.5,97C 67.8582,95.3113 69.5249,93.978 71.5,93C 71.1667,92 70.8333,91 70.5,90C 71.9436,88.2932 73.277,86.4599 74.5,84.5C 73.5396,83.1877 73.7063,81.8544 75,80.5C 76.0212,84.8073 77.1879,85.1406 78.5,81.5C 77.8333,81.1667 77.1667,80.8333 76.5,80.5C 78.128,77.881 78.4613,75.2144 77.5,72.5C 80.4518,71.3456 83.4518,70.3456 86.5,69.5 Z"/></g>
<g><path style="opacity:1" fill="#0050c8" d="M 77.5,72.5 C 78.4613,75.2144 78.128,77.881 76.5,80.5C 77.1667,80.8333 77.8333,81.1667 78.5,81.5C 77.1879,85.1406 76.0212,84.8073 75,80.5C 73.7063,81.8544 73.5396,83.1877 74.5,84.5C 73.277,86.4599 71.9436,88.2932 70.5,90C 70.8333,91 71.1667,92 71.5,93C 69.5249,93.978 67.8582,95.3113 66.5,97C 68.0023,99.0057 67.669,100.672 65.5,102C 67.8478,104.116 67.1811,105.282 63.5,105.5C 59.7108,90.7597 64.3775,79.7597 77.5,72.5 Z"/></g>
<g><path style="opacity:1" fill="#004bba" d="M 100.5,72.5 C 103.911,73.8804 107.244,75.2137 110.5,76.5C 107.241,86.8409 102.575,96.8409 96.5,106.5C 96.8333,107.167 97.1667,107.833 97.5,108.5C 97.1543,109.696 96.6543,109.696 96,108.5C 94.3253,110.591 93.8253,112.758 94.5,115C 91.8532,115.315 91.1865,116.482 92.5,118.5C 91.1468,119.524 90.4802,120.857 90.5,122.5C 90.44,123.043 90.1067,123.376 89.5,123.5C 86.8908,122.77 84.2241,122.27 81.5,122C 79.5087,121.626 77.842,120.793 76.5,119.5C 79.6669,114.231 82.8336,108.898 86,103.5C 86.9341,99.2785 88.4341,95.2785 90.5,91.5C 93.7609,91.8995 94.4276,90.7329 92.5,88C 94.5891,82.9276 97.2558,77.7609 100.5,72.5 Z"/></g>
<g><path style="opacity:1" fill="#004ab5" d="M 120.5,72.5 C 120.611,73.1174 120.944,73.6174 121.5,74C 119.699,74.3173 119.366,74.984 120.5,76C 118.699,76.3173 118.366,76.984 119.5,78C 116.638,79.7859 115.972,82.1192 117.5,85C 116.167,85.3333 114.833,85.6667 113.5,86C 114.337,87.0113 114.67,88.1779 114.5,89.5C 111.402,89.4125 111.068,89.9125 113.5,91C 112.033,92.0975 111.199,93.5975 111,95.5C 110.667,95.1667 110.333,94.8333 110,94.5C 108.691,96.6864 108.524,98.8531 109.5,101C 107.519,101.605 107.185,102.605 108.5,104C 105.931,106.453 103.598,109.12 101.5,112C 102.187,113.162 102.353,114.328 102,115.5C 101.667,115.167 101.333,114.833 101,114.5C 100.276,116.959 98.9427,117.959 97,117.5C 96.3333,118.5 96.3333,119.5 97,120.5C 98.1455,119.316 99.3121,119.316 100.5,120.5C 97.4928,122.175 94.1595,122.841 90.5,122.5C 90.4802,120.857 91.1468,119.524 92.5,118.5C 91.1865,116.482 91.8532,115.315 94.5,115C 93.8253,112.758 94.3253,110.591 96,108.5C 96.6543,109.696 97.1543,109.696 97.5,108.5C 97.1667,107.833 96.8333,107.167 96.5,106.5C 102.575,96.8409 107.241,86.8409 110.5,76.5C 114.237,76.071 117.57,74.7377 120.5,72.5 Z"/></g>
<g><path style="opacity:1" fill="#0044af" d="M 117.5,98.5 C 119.221,103.555 122.555,106.888 127.5,108.5C 125.058,108.354 124.391,109.187 125.5,111C 124.874,111.75 124.374,112.584 124,113.5C 123.086,112.346 122.253,112.513 121.5,114C 121.833,114.333 122.167,114.667 122.5,115C 121.418,116.33 120.751,117.83 120.5,119.5C 117.592,118.308 114.592,117.308 111.5,116.5C 109.547,117.156 107.547,117.489 105.5,117.5C 105.062,117.565 104.728,117.399 104.5,117C 105.833,115.333 107.167,113.667 108.5,112C 108.167,111.667 107.833,111.333 107.5,111C 108.956,109.255 110.289,107.422 111.5,105.5C 110.391,103.786 111.058,103.119 113.5,103.5C 113.227,101.549 113.893,100.049 115.5,99C 115.167,98.6667 114.833,98.3333 114.5,98C 115.577,97.5304 116.577,97.6971 117.5,98.5 Z"/></g>
<g><path style="opacity:1" fill="#0056d9" d="M 31.5,102.5 C 30.7688,102.942 29.7688,103.109 28.5,103C 28.5,104.667 28.5,106.333 28.5,108C 27.1667,109 25.8333,110 24.5,111C 25.1667,111.667 25.8333,112.333 26.5,113C 23.6971,114.112 22.6971,115.946 23.5,118.5C 22.5091,120.323 21.1757,121.823 19.5,123C 20.5523,124.716 19.8856,125.716 17.5,126C 18.3279,126.915 19.3279,127.581 20.5,128C 19.5698,131.005 17.5698,133.672 14.5,136C 15.1667,136.333 15.8333,136.667 16.5,137C 15.0337,137.635 13.7003,138.469 12.5,139.5C 11.3554,140.776 11.3554,142.109 12.5,143.5C 11.1457,144.854 9.81234,146.188 8.5,147.5C 4.51578,144.18 1.51578,140.18 -0.5,135.5C -0.5,135.167 -0.5,134.833 -0.5,134.5C 1.33501,133.878 2.50167,132.544 3,130.5C 5.84834,125.126 8.01501,119.459 9.5,113.5C 12.2763,113.911 12.943,113.078 11.5,111C 13.3035,108.55 14.9702,106.05 16.5,103.5C 21.5124,101.495 26.5124,101.161 31.5,102.5 Z"/></g>
<g><path style="opacity:1" fill="#0051d4" d="M 31.5,102.5 C 35.6358,102.655 39.3025,103.989 42.5,106.5C 39.9983,109.508 37.665,112.674 35.5,116C 36.1667,116.333 36.8333,116.667 37.5,117C 33.2361,120.807 31.0694,125.307 31,130.5C 30.6667,130.167 30.3333,129.833 30,129.5C 28.6319,130.993 28.4652,132.493 29.5,134C 27.6061,135.101 26.9394,136.434 27.5,138C 25.4171,139.619 23.7504,141.619 22.5,144C 23.1771,146.537 22.1771,148.537 19.5,150C 20.1513,151.308 19.4846,152.141 17.5,152.5C 13.7275,152.116 10.7275,150.45 8.5,147.5C 9.81234,146.188 11.1457,144.854 12.5,143.5C 11.3554,142.109 11.3554,140.776 12.5,139.5C 13.7003,138.469 15.0337,137.635 16.5,137C 15.8333,136.667 15.1667,136.333 14.5,136C 17.5698,133.672 19.5698,131.005 20.5,128C 19.3279,127.581 18.3279,126.915 17.5,126C 19.8856,125.716 20.5523,124.716 19.5,123C 21.1757,121.823 22.5091,120.323 23.5,118.5C 22.6971,115.946 23.6971,114.112 26.5,113C 25.8333,112.333 25.1667,111.667 24.5,111C 25.8333,110 27.1667,109 28.5,108C 28.5,106.333 28.5,104.667 28.5,103C 29.7688,103.109 30.7688,102.942 31.5,102.5 Z"/></g>
<g><path style="opacity:1" fill="#003ea2" d="M 154.5,102.5 C 154.66,104.199 154.494,105.866 154,107.5C 151.328,110.539 149.161,113.372 147.5,116C 147.833,116.333 148.167,116.667 148.5,117C 145.777,121.751 143.277,126.584 141,131.5C 140.667,133.167 140.333,134.833 140,136.5C 139.667,136.167 139.333,135.833 139,135.5C 138.74,137.618 137.74,139.284 136,140.5C 134.656,143.259 134.156,145.926 134.5,148.5C 129.209,144.925 126.209,139.925 125.5,133.5C 127.043,131.604 128.709,129.771 130.5,128C 129.66,126.334 130.16,126.167 132,127.5C 133.779,125.983 133.279,125.149 130.5,125C 131.641,124.259 131.641,123.425 130.5,122.5C 131.96,120.578 133.627,119.911 135.5,120.5C 135.331,118.251 135.331,116.084 135.5,114C 136.01,112.174 136.844,112.007 138,113.5C 138.617,112.551 138.451,111.718 137.5,111C 138.5,110.667 139.5,110.333 140.5,110C 139.839,108.14 139.839,106.64 140.5,105.5C 144.693,102.91 149.36,101.91 154.5,102.5 Z"/></g>
<g><path style="opacity:1" fill="#003e9c" d="M 154.5,102.5 C 159.795,102.649 164.462,104.316 168.5,107.5C 166.922,108.066 165.588,109.066 164.5,110.5C 164.709,111.086 165.043,111.586 165.5,112C 161.047,117.572 158.047,123.572 156.5,130C 154.699,130.317 154.366,130.984 155.5,132C 154.087,134.202 152.587,136.368 151,138.5C 150.316,139.784 150.483,140.951 151.5,142C 148.701,142.439 147.701,143.772 148.5,146C 146.735,148.517 145.069,151.017 143.5,153.5C 139.728,153.116 136.728,151.45 134.5,148.5C 134.156,145.926 134.656,143.259 136,140.5C 137.74,139.284 138.74,137.618 139,135.5C 139.333,135.833 139.667,136.167 140,136.5C 140.333,134.833 140.667,133.167 141,131.5C 143.277,126.584 145.777,121.751 148.5,117C 148.167,116.667 147.833,116.333 147.5,116C 149.161,113.372 151.328,110.539 154,107.5C 154.494,105.866 154.66,104.199 154.5,102.5 Z"/></g>
<g><path style="opacity:1" fill="#0157e0" d="M 16.5,103.5 C 14.9702,106.05 13.3035,108.55 11.5,111C 12.943,113.078 12.2763,113.911 9.5,113.5C 8.01501,119.459 5.84834,125.126 3,130.5C 2.50167,132.544 1.33501,133.878 -0.5,134.5C -0.5,130.167 -0.5,125.833 -0.5,121.5C 2.40268,112.93 8.06935,106.93 16.5,103.5 Z"/></g>
<g><path style="opacity:1" fill="#0043a7" d="M 140.5,105.5 C 139.839,106.64 139.839,108.14 140.5,110C 139.5,110.333 138.5,110.667 137.5,111C 138.451,111.718 138.617,112.551 138,113.5C 136.844,112.007 136.01,112.174 135.5,114C 135.331,116.084 135.331,118.251 135.5,120.5C 133.627,119.911 131.96,120.578 130.5,122.5C 131.641,123.425 131.641,124.259 130.5,125C 133.279,125.149 133.779,125.983 132,127.5C 130.16,126.167 129.66,126.334 130.5,128C 128.709,129.771 127.043,131.604 125.5,133.5C 125.284,128.297 123.617,123.631 120.5,119.5C 120.751,117.83 121.418,116.33 122.5,115C 122.167,114.667 121.833,114.333 121.5,114C 122.253,112.513 123.086,112.346 124,113.5C 124.374,112.584 124.874,111.75 125.5,111C 124.391,109.187 125.058,108.354 127.5,108.5C 132.085,108.526 136.419,107.526 140.5,105.5 Z"/></g>
<g><path style="opacity:1" fill="#0051ce" d="M 42.5,106.5 C 46.2119,109.211 49.2119,112.544 51.5,116.5C 48.4017,116.413 48.0684,116.913 50.5,118C 49.206,121.281 47.206,123.948 44.5,126C 45.5256,128.464 44.6923,130.298 42,131.5C 41.7266,133.101 41.2266,134.601 40.5,136C 40.8333,136.333 41.1667,136.667 41.5,137C 39.1144,137.284 38.4477,138.284 39.5,140C 37.6992,140.317 37.3659,140.984 38.5,142C 35.6979,145.781 33.6979,149.614 32.5,153.5C 30.6965,154.162 28.6965,154.495 26.5,154.5C 23.1864,154.657 20.1864,153.991 17.5,152.5C 19.4846,152.141 20.1513,151.308 19.5,150C 22.1771,148.537 23.1771,146.537 22.5,144C 23.7504,141.619 25.4171,139.619 27.5,138C 26.9394,136.434 27.6061,135.101 29.5,134C 28.4652,132.493 28.6319,130.993 30,129.5C 30.3333,129.833 30.6667,130.167 31,130.5C 31.0694,125.307 33.2361,120.807 37.5,117C 36.8333,116.667 36.1667,116.333 35.5,116C 37.665,112.674 39.9983,109.508 42.5,106.5 Z"/></g>
<g><path style="opacity:1" fill="#003d96" d="M 168.5,107.5 C 170.5,108.833 172.167,110.5 173.5,112.5C 173.741,115.999 172.908,116.332 171,113.5C 170.508,114.549 170.674,115.549 171.5,116.5C 170.204,118.336 169.37,120.336 169,122.5C 168.667,121.833 168.333,121.167 168,120.5C 167.104,123.14 165.604,125.307 163.5,127C 164.362,129.734 165.195,129.901 166,127.5C 166.483,128.448 166.649,129.448 166.5,130.5C 164.418,130.472 162.584,131.139 161,132.5C 160.544,133.744 161.044,134.577 162.5,135C 161.773,136.399 161.273,137.899 161,139.5C 160.195,137.099 159.362,137.266 158.5,140C 161.167,140.667 161.167,141.333 158.5,142C 159.276,143.77 159.11,145.603 158,147.5C 157.586,147.043 157.086,146.709 156.5,146.5C 155.646,147.522 154.646,148.355 153.5,149C 156.544,149.359 156.878,150.026 154.5,151C 155.167,151.333 155.833,151.667 156.5,152C 152.506,153.46 152.506,154.627 156.5,155.5C 151.878,155.844 147.545,155.177 143.5,153.5C 145.069,151.017 146.735,148.517 148.5,146C 147.701,143.772 148.701,142.439 151.5,142C 150.483,140.951 150.316,139.784 151,138.5C 152.587,136.368 154.087,134.202 155.5,132C 154.366,130.984 154.699,130.317 156.5,130C 158.047,123.572 161.047,117.572 165.5,112C 165.043,111.586 164.709,111.086 164.5,110.5C 165.588,109.066 166.922,108.066 168.5,107.5 Z"/></g>
<g><path style="opacity:1" fill="#003895" d="M 173.5,112.5 C 175.326,114.147 176.66,116.147 177.5,118.5C 177.19,119.738 176.69,119.738 176,118.5C 175.801,120.402 174.967,121.902 173.5,123C 173.833,123.333 174.167,123.667 174.5,124C 171.672,126.162 170.672,128.829 171.5,132C 170.5,132.333 169.5,132.667 168.5,133C 169.138,134.707 169.138,136.54 168.5,138.5C 166.058,138.119 165.391,138.786 166.5,140.5C 163.357,145.628 161.023,150.295 159.5,154.5C 158.391,154.557 157.391,154.89 156.5,155.5C 152.506,154.627 152.506,153.46 156.5,152C 155.833,151.667 155.167,151.333 154.5,151C 156.878,150.026 156.544,149.359 153.5,149C 154.646,148.355 155.646,147.522 156.5,146.5C 157.086,146.709 157.586,147.043 158,147.5C 159.11,145.603 159.276,143.77 158.5,142C 161.167,141.333 161.167,140.667 158.5,140C 159.362,137.266 160.195,137.099 161,139.5C 161.273,137.899 161.773,136.399 162.5,135C 161.044,134.577 160.544,133.744 161,132.5C 162.584,131.139 164.418,130.472 166.5,130.5C 166.649,129.448 166.483,128.448 166,127.5C 165.195,129.901 164.362,129.734 163.5,127C 165.604,125.307 167.104,123.14 168,120.5C 168.333,121.167 168.667,121.833 169,122.5C 169.37,120.336 170.204,118.336 171.5,116.5C 170.674,115.549 170.508,114.549 171,113.5C 172.908,116.332 173.741,115.999 173.5,112.5 Z"/></g>
<g><path style="opacity:1" fill="#0050c8" d="M 51.5,116.5 C 52.807,119.725 53.807,123.059 54.5,126.5C 53.7611,126.369 53.0944,126.536 52.5,127C 54.013,129.454 53.3463,131.121 50.5,132C 51.1667,132.333 51.8333,132.667 52.5,133C 50.246,133.624 48.5794,134.957 47.5,137C 48.1667,137.333 48.8333,137.667 49.5,138C 47.7174,139.067 47.2174,140.567 48,142.5C 48.7083,141.619 49.5416,140.953 50.5,140.5C 46.7959,147.852 40.7959,152.186 32.5,153.5C 33.6979,149.614 35.6979,145.781 38.5,142C 37.3659,140.984 37.6992,140.317 39.5,140C 38.4477,138.284 39.1144,137.284 41.5,137C 41.1667,136.667 40.8333,136.333 40.5,136C 41.2266,134.601 41.7266,133.101 42,131.5C 44.6923,130.298 45.5256,128.464 44.5,126C 47.206,123.948 49.206,121.281 50.5,118C 48.0684,116.913 48.4017,116.413 51.5,116.5 Z"/></g>
<g><path style="opacity:1" fill="#00388e" d="M 177.5,118.5 C 178.167,119.5 178.833,120.5 179.5,121.5C 179.5,126.167 179.5,130.833 179.5,135.5C 176.104,145.229 169.437,151.562 159.5,154.5C 161.023,150.295 163.357,145.628 166.5,140.5C 165.391,138.786 166.058,138.119 168.5,138.5C 169.138,136.54 169.138,134.707 168.5,133C 169.5,132.667 170.5,132.333 171.5,132C 170.672,128.829 171.672,126.162 174.5,124C 174.167,123.667 173.833,123.333 173.5,123C 174.967,121.902 175.801,120.402 176,118.5C 176.69,119.738 177.19,119.738 177.5,118.5 Z"/></g>
<g><path style="opacity:1" fill="#004bc7" d="M 54.5,126.5 C 54.3898,131.622 53.0564,136.288 50.5,140.5C 49.5416,140.953 48.7083,141.619 48,142.5C 47.2174,140.567 47.7174,139.067 49.5,138C 48.8333,137.667 48.1667,137.333 47.5,137C 48.5794,134.957 50.246,133.624 52.5,133C 51.8333,132.667 51.1667,132.333 50.5,132C 53.3463,131.121 54.013,129.454 52.5,127C 53.0944,126.536 53.7611,126.369 54.5,126.5 Z"/></g>
<g><path style="opacity:1" fill="#004ab5" d="M 91.5,137.5 C 90.5423,138.962 89.3756,140.295 88,141.5C 87.654,143.218 87.154,144.885 86.5,146.5C 85.7261,147.711 84.8928,147.711 84,146.5C 83.5439,147.744 84.0439,148.577 85.5,149C 84.552,149.483 83.552,149.649 82.5,149.5C 82.78,152.272 82.1134,154.772 80.5,157C 81.1667,157.333 81.8333,157.667 82.5,158C 80.622,158.252 78.622,158.919 76.5,160C 79.9069,161.127 79.5736,162.46 75.5,164C 78.4978,166.808 77.8312,168.141 73.5,168C 74.5,168.333 75.5,168.667 76.5,169C 74.6741,172.422 72.3408,175.922 69.5,179.5C 71.9248,180.649 71.9248,181.316 69.5,181.5C 67.1,179.704 65.4333,177.37 64.5,174.5C 66.7106,172.709 67.3772,170.542 66.5,168C 68.5185,166.143 70.1851,163.976 71.5,161.5C 71.2907,160.914 70.9574,160.414 70.5,160C 72.1667,159 73.5,157.667 74.5,156C 73.8333,155.667 73.1667,155.333 72.5,155C 74.3325,154.252 75.9991,153.252 77.5,152C 76.9415,151.275 76.6082,150.442 76.5,149.5C 77.5125,146.309 79.5125,143.476 82.5,141C 79.8333,140.333 79.8333,139.667 82.5,139C 82.2716,138.601 81.9382,138.435 81.5,138.5C 84.7698,136.84 88.1031,136.506 91.5,137.5 Z"/></g>
<g><path style="opacity:1" fill="#0044b4" d="M 91.5,137.5 C 93.1667,137.5 94.8333,137.5 96.5,137.5C 92.4564,145.313 88.123,153.48 83.5,162C 83.9724,164.399 82.9724,166.399 80.5,168C 80.8346,169.503 80.8346,170.836 80.5,172C 77.8438,173.003 76.8438,174.67 77.5,177C 75.5123,179.112 74.179,181.612 73.5,184.5C 71.5956,184.262 70.2623,183.262 69.5,181.5C 71.9248,181.316 71.9248,180.649 69.5,179.5C 72.3408,175.922 74.6741,172.422 76.5,169C 75.5,168.667 74.5,168.333 73.5,168C 77.8312,168.141 78.4978,166.808 75.5,164C 79.5736,162.46 79.9069,161.127 76.5,160C 78.622,158.919 80.622,158.252 82.5,158C 81.8333,157.667 81.1667,157.333 80.5,157C 82.1134,154.772 82.78,152.272 82.5,149.5C 83.552,149.649 84.552,149.483 85.5,149C 84.0439,148.577 83.5439,147.744 84,146.5C 84.8928,147.711 85.7261,147.711 86.5,146.5C 87.154,144.885 87.654,143.218 88,141.5C 89.3756,140.295 90.5423,138.962 91.5,137.5 Z"/></g>
<g><path style="opacity:1" fill="#004aba" d="M 81.5,138.5 C 81.9382,138.435 82.2716,138.601 82.5,139C 79.8333,139.667 79.8333,140.333 82.5,141C 79.5125,143.476 77.5125,146.309 76.5,149.5C 76.6082,150.442 76.9415,151.275 77.5,152C 75.9991,153.252 74.3325,154.252 72.5,155C 73.1667,155.333 73.8333,155.667 74.5,156C 73.5,157.667 72.1667,159 70.5,160C 70.9574,160.414 71.2907,160.914 71.5,161.5C 70.1851,163.976 68.5185,166.143 66.5,168C 67.3772,170.542 66.7106,172.709 64.5,174.5C 59.3553,161.909 62.0219,151.076 72.5,142C 75.3093,140.259 78.3093,139.092 81.5,138.5 Z"/></g>
<g><path style="opacity:1" fill="#0044ae" d="M 96.5,137.5 C 101.674,138.915 106.007,141.581 109.5,145.5C 108.194,146.968 106.694,148.301 105,149.5C 105,150.833 105,152.167 105,153.5C 103.745,154.211 102.579,155.044 101.5,156C 101.833,156.333 102.167,156.667 102.5,157C 101.5,158 100.5,159 99.5,160C 100.517,161.049 100.684,162.216 100,163.5C 95.744,170.295 91.5773,177.628 87.5,185.5C 87.6082,186.442 87.9415,187.275 88.5,188C 87.5842,188.278 86.9175,188.778 86.5,189.5C 84.8333,189.5 83.1667,189.5 81.5,189.5C 78.53,188.347 75.8633,186.68 73.5,184.5C 74.179,181.612 75.5123,179.112 77.5,177C 76.8438,174.67 77.8438,173.003 80.5,172C 80.8346,170.836 80.8346,169.503 80.5,168C 82.9724,166.399 83.9724,164.399 83.5,162C 88.123,153.48 92.4564,145.313 96.5,137.5 Z"/></g>
<g><path style="opacity:1" fill="#0043a7" d="M 109.5,145.5 C 114.563,150.343 116.896,156.343 116.5,163.5C 114.459,163.854 112.626,163.854 111,163.5C 110.293,165.081 109.46,166.581 108.5,168C 109.744,168.456 110.577,167.956 111,166.5C 111.5,167 112,167.5 112.5,168C 110.459,169.242 109.293,171.075 109,173.5C 108.333,174.833 107.667,174.833 107,173.5C 106.316,174.784 106.483,175.951 107.5,177C 104.071,179.466 102.738,182.299 103.5,185.5C 101.388,187.206 99.0547,188.539 96.5,189.5C 93.1667,189.5 89.8333,189.5 86.5,189.5C 86.9175,188.778 87.5842,188.278 88.5,188C 87.9415,187.275 87.6082,186.442 87.5,185.5C 91.5773,177.628 95.744,170.295 100,163.5C 100.684,162.216 100.517,161.049 99.5,160C 100.5,159 101.5,158 102.5,157C 102.167,156.667 101.833,156.333 101.5,156C 102.579,155.044 103.745,154.211 105,153.5C 105,152.167 105,150.833 105,149.5C 106.694,148.301 108.194,146.968 109.5,145.5 Z"/></g>
<g><path style="opacity:1" fill="#003ea2" d="M 116.5,163.5 C 116.266,173.371 111.933,180.704 103.5,185.5C 102.738,182.299 104.071,179.466 107.5,177C 106.483,175.951 106.316,174.784 107,173.5C 107.667,174.833 108.333,174.833 109,173.5C 109.293,171.075 110.459,169.242 112.5,168C 112,167.5 111.5,167 111,166.5C 110.577,167.956 109.744,168.456 108.5,168C 109.46,166.581 110.293,165.081 111,163.5C 112.626,163.854 114.459,163.854 116.5,163.5 Z"/></g>
</svg>
